<svg width="16" height="16" viewBox="0 0 16 16" fill="none" xmlns="http://www.w3.org/2000/svg">
  <g clip-path="url(#clip0_0_35)">
    <path
      d="M8 9.33333C8.73638 9.33333 9.33333 8.73638 9.33333 8C9.33333 7.26362 8.73638 6.66667 8 6.66667C7.26362 6.66667 6.66667 7.26362 6.66667 8C6.66667 8.73638 7.26362 9.33333 8 9.33333Z"
      fill="black" />
    <path fill-rule="evenodd" clip-rule="evenodd"
      d="M8 0C8.36819 0 8.66667 0.298477 8.66667 0.666667V2.03662C11.4477 2.34405 13.6559 4.55226 13.9634 7.33333H15.3333C15.7015 7.33333 16 7.63181 16 8C16 8.36819 15.7015 8.66667 15.3333 8.66667H13.9634C13.6559 11.4477 11.4477 13.6559 8.66667 13.9634V15.3333C8.66667 15.7015 8.36819 16 8 16C7.63181 16 7.33333 15.7015 7.33333 15.3333V13.9634C4.55226 13.6559 2.34405 11.4477 2.03662 8.66667H0.666667C0.298477 8.66667 0 8.36819 0 8C0 7.63181 0.298477 7.33333 0.666667 7.33333H2.03662C2.34405 4.55226 4.55226 2.34405 7.33333 2.03662V0.666667C7.33333 0.298477 7.63181 0 8 0ZM3.33333 8C3.33333 10.5773 5.42267 12.6667 8 12.6667C10.5773 12.6667 12.6667 10.5773 12.6667 8C12.6667 5.42267 10.5773 3.33333 8 3.33333C5.42267 3.33333 3.33333 5.42267 3.33333 8Z"
      fill="black" />
  </g>
  <defs>
    <clipPath id="clip0_0_35">
      <rect width="16" height="16" fill="white" />
    </clipPath>
  </defs>
</svg>