<svg preserveAspectRatio="none" overflow="visible" style="display: block;" width="18" height="18" viewBox="0 0 18 18" fill="none" xmlns="http://www.w3.org/2000/svg">
<g id="search.fat">
<path id="search.fat_2" fill-rule="evenodd" clip-rule="evenodd" d="M8.66797 5C10.6932 5.00026 12.335 6.64263 12.335 8.66797C12.3347 10.6931 10.6931 12.3347 8.66797 12.335C6.64263 12.335 5.00026 10.6932 5 8.66797C5 6.64247 6.64247 5 8.66797 5ZM13.3195 11.9055C13.9595 10.9877 14.3349 9.87167 14.335 8.66797C14.335 5.53806 11.7978 3.00026 8.66797 3C5.5379 3 3 5.5379 3 8.66797C3.00026 11.7978 5.53806 14.335 8.66797 14.335C9.87167 14.3349 10.9877 13.9595 11.9055 13.3195L13.2935 14.7075C13.684 15.0981 14.317 15.0981 14.7075 14.7075C15.0981 14.317 15.0981 13.684 14.7075 13.2935L13.3195 11.9055Z" fill="#6D7083"/>
</g>
</svg>
